<?xml version="1.0" encoding="UTF-8" standalone="no"?>
<!-- Created with Inkscape (http://www.inkscape.org/) -->

<svg
   xmlns:dc="http://purl.org/dc/elements/1.1/"
   xmlns:cc="http://creativecommons.org/ns#"
   xmlns:rdf="http://www.w3.org/1999/02/22-rdf-syntax-ns#"
   xmlns:svg="http://www.w3.org/2000/svg"
   xmlns="http://www.w3.org/2000/svg"
   xmlns:sodipodi="http://sodipodi.sourceforge.net/DTD/sodipodi-0.dtd"
   xmlns:inkscape="http://www.inkscape.org/namespaces/inkscape"
   width="363.76794"
   height="107.57008"
   id="svg2"
   version="1.1"
   inkscape:version="0.48.2 r9819"
   sodipodi:docname="missing-cone.svg">
  <sodipodi:namedview
     id="base"
     pagecolor="#ffffff"
     bordercolor="#666666"
     borderopacity="1.0"
     inkscape:pageopacity="0.0"
     inkscape:pageshadow="2"
     inkscape:zoom="2.8"
     inkscape:cx="157.45841"
     inkscape:cy="40.201834"
     inkscape:document-units="px"
     inkscape:current-layer="layer1"
     showgrid="false"
     units="mm"
     inkscape:object-paths="false"
     inkscape:object-nodes="false"
     inkscape:snap-object-midpoints="true"
     inkscape:snap-midpoints="true"
     inkscape:window-width="1364"
     inkscape:window-height="757"
     inkscape:window-x="0"
     inkscape:window-y="9"
     inkscape:window-maximized="0"
     inkscape:snap-nodes="false"
     fit-margin-top="0"
     fit-margin-left="0"
     fit-margin-right="0"
     fit-margin-bottom="0" />
  <defs
     id="defs4">
    <marker
       style="overflow:visible"
       id="Arrow1Mend"
       refX="0"
       refY="0"
       orient="auto"
       inkscape:stockid="Arrow1Mend">
      <path
         inkscape:connector-curvature="0"
         transform="matrix(-0.4,0,0,-0.4,-4,0)"
         style="fill-rule:evenodd;stroke:#000000;stroke-width:1pt;marker-start:none"
         d="M 0,0 5,-5 -12.5,0 5,5 0,0 z"
         id="path4491" />
    </marker>
    <marker
       style="overflow:visible"
       id="Arrow1Mstart"
       refX="0"
       refY="0"
       orient="auto"
       inkscape:stockid="Arrow1Mstart">
      <path
         inkscape:connector-curvature="0"
         transform="matrix(0.4,0,0,0.4,4,0)"
         style="fill-rule:evenodd;stroke:#000000;stroke-width:1pt;marker-start:none"
         d="M 0,0 5,-5 -12.5,0 5,5 0,0 z"
         id="path4488" />
    </marker>
    <marker
       style="overflow:visible"
       id="Arrow1Mstart-5"
       refX="0"
       refY="0"
       orient="auto"
       inkscape:stockid="Arrow1Mstart">
      <path
         inkscape:connector-curvature="0"
         transform="matrix(0.4,0,0,0.4,4,0)"
         style="fill-rule:evenodd;stroke:#000000;stroke-width:1pt;marker-start:none"
         d="M 0,0 5,-5 -12.5,0 5,5 0,0 z"
         id="path4488-5" />
    </marker>
    <marker
       style="overflow:visible"
       id="Arrow1Mend-9"
       refX="0"
       refY="0"
       orient="auto"
       inkscape:stockid="Arrow1Mend">
      <path
         inkscape:connector-curvature="0"
         transform="matrix(-0.4,0,0,-0.4,-4,0)"
         style="fill-rule:evenodd;stroke:#000000;stroke-width:1pt;marker-start:none"
         d="M 0,0 5,-5 -12.5,0 5,5 0,0 z"
         id="path4491-9" />
    </marker>
    <marker
       style="overflow:visible"
       id="Arrow1Mstart8"
       refX="0"
       refY="0"
       orient="auto"
       inkscape:stockid="Arrow1Mstart8">
      <path
         inkscape:connector-curvature="0"
         transform="matrix(0.4,0,0,0.4,4,0)"
         style="fill:#808080;fill-rule:evenodd;stroke:#808080;stroke-width:1pt;marker-start:none"
         d="M 0,0 5,-5 -12.5,0 5,5 0,0 z"
         id="path3083" />
    </marker>
    <marker
       style="overflow:visible"
       id="Arrow1MendQ"
       refX="0"
       refY="0"
       orient="auto"
       inkscape:stockid="Arrow1MendQ">
      <path
         inkscape:connector-curvature="0"
         transform="matrix(-0.4,0,0,-0.4,-4,0)"
         style="fill:#808080;fill-rule:evenodd;stroke:#808080;stroke-width:1pt;marker-start:none"
         d="M 0,0 5,-5 -12.5,0 5,5 0,0 z"
         id="path3086" />
    </marker>
    <marker
       style="overflow:visible"
       id="Arrow1Mstart8-8"
       refX="0"
       refY="0"
       orient="auto"
       inkscape:stockid="Arrow1Mstart8">
      <path
         inkscape:connector-curvature="0"
         transform="matrix(0.4,0,0,0.4,4,0)"
         style="fill:#808080;fill-rule:evenodd;stroke:#808080;stroke-width:1pt;marker-start:none"
         d="M 0,0 5,-5 -12.5,0 5,5 0,0 z"
         id="path3083-1" />
    </marker>
    <marker
       style="overflow:visible"
       id="Arrow1MendQ-4"
       refX="0"
       refY="0"
       orient="auto"
       inkscape:stockid="Arrow1MendQ">
      <path
         inkscape:connector-curvature="0"
         transform="matrix(-0.4,0,0,-0.4,-4,0)"
         style="fill:#808080;fill-rule:evenodd;stroke:#808080;stroke-width:1pt;marker-start:none"
         d="M 0,0 5,-5 -12.5,0 5,5 0,0 z"
         id="path3086-2" />
    </marker>
  </defs>
  <metadata
     id="metadata7">
    <rdf:RDF>
      <cc:Work
         rdf:about="">
        <dc:format>image/svg+xml</dc:format>
        <dc:type
           rdf:resource="http://purl.org/dc/dcmitype/StillImage" />
      </cc:Work>
    </rdf:RDF>
  </metadata>
  <g
     transform="translate(-294.05068,-880.93225)"
     id="layer1"
     inkscape:groupmode="layer"
     inkscape:label="Layer 1">
    <path
       sodipodi:nodetypes="ccc"
       inkscape:connector-curvature="0"
       id="path4477-8"
       d="m 403.42433,940.07828 -66.8227,0 0,-30.71429"
       style="fill:none;stroke:#808080;stroke-width:1.5;stroke-linecap:butt;stroke-linejoin:miter;stroke-miterlimit:4;stroke-opacity:1;stroke-dasharray:none;marker-start:url(#Arrow1Mstart8);marker-end:url(#Arrow1MendQ)" />
    <path
       sodipodi:open="true"
       sodipodi:end="2.268928"
       sodipodi:start="0.87266463"
       transform="translate(227.83414,864.454)"
       d="m 108.74774,75.633219 c -12.082089,10.138074 -29.699111,10.138074 -41.781197,0"
       sodipodi:ry="32.5"
       sodipodi:rx="32.5"
       sodipodi:cy="50.736774"
       sodipodi:cx="87.85714"
       id="path2985-82"
       style="fill:none;stroke:#000000;stroke-width:1.5;stroke-linecap:butt;stroke-miterlimit:10.43299961;stroke-opacity:1;stroke-dasharray:none;stroke-dashoffset:0"
       sodipodi:type="arc" />
    <path
       sodipodi:open="true"
       sodipodi:end="2.268928"
       sodipodi:start="0.87266463"
       d="m 108.74774,75.633219 c -12.082089,10.138074 -29.699111,10.138074 -41.781197,0"
       sodipodi:ry="32.5"
       sodipodi:rx="32.5"
       sodipodi:cy="50.736774"
       sodipodi:cx="87.85714"
       id="path2985-8-1"
       style="fill:none;stroke:#000000;stroke-width:0.5;stroke-linecap:butt;stroke-miterlimit:10.43299961;stroke-opacity:1;stroke-dasharray:none;stroke-dashoffset:0"
       sodipodi:type="arc"
       transform="matrix(1,0,0,-1,248.72474,1023.324)" />
    <path
       sodipodi:open="true"
       sodipodi:end="2.268928"
       sodipodi:start="0.87266463"
       d="m 108.74774,75.633219 c -12.082089,10.138074 -29.699111,10.138074 -41.781197,0"
       sodipodi:ry="32.5"
       sodipodi:rx="32.5"
       sodipodi:cy="50.736774"
       sodipodi:cx="87.85714"
       id="path2985-8-9-6"
       style="fill:none;stroke:#000000;stroke-width:0.5;stroke-linecap:butt;stroke-miterlimit:10.43299961;stroke-opacity:1;stroke-dasharray:none;stroke-dashoffset:0"
       sodipodi:type="arc"
       transform="matrix(1,0,0,-1,261.46962,1020.7255)" />
    <path
       sodipodi:open="true"
       sodipodi:end="2.268928"
       sodipodi:start="0.87266463"
       d="m 108.74774,75.633219 c -12.082089,10.138074 -29.699111,10.138074 -41.781197,0"
       sodipodi:ry="32.5"
       sodipodi:rx="32.5"
       sodipodi:cy="50.736774"
       sodipodi:cx="87.85714"
       id="path2985-8-9-2-92"
       style="fill:none;stroke:#000000;stroke-width:0.5;stroke-linecap:butt;stroke-miterlimit:10.43299961;stroke-opacity:1;stroke-dasharray:none;stroke-dashoffset:0"
       sodipodi:type="arc"
       transform="matrix(1,0,0,-1,266.54335,1018.0061)" />
    <path
       sodipodi:open="true"
       sodipodi:end="2.268928"
       sodipodi:start="0.87266463"
       d="m 108.74774,75.633219 c -12.082089,10.138074 -29.699111,10.138074 -41.781197,0"
       sodipodi:ry="32.5"
       sodipodi:rx="32.5"
       sodipodi:cy="50.736774"
       sodipodi:cx="87.85714"
       id="path2985-8-9-2-1-23"
       style="fill:none;stroke:#000000;stroke-width:0.5;stroke-linecap:butt;stroke-miterlimit:10.43299961;stroke-opacity:1;stroke-dasharray:none;stroke-dashoffset:0"
       sodipodi:type="arc"
       transform="matrix(1,0,0,-1,235.52453,1020.5273)" />
    <path
       sodipodi:open="true"
       sodipodi:end="2.268928"
       sodipodi:start="0.87266463"
       d="m 108.74774,75.633219 c -12.082089,10.138074 -29.699111,10.138074 -41.781197,0"
       sodipodi:ry="32.5"
       sodipodi:rx="32.5"
       sodipodi:cy="50.736774"
       sodipodi:cx="87.85714"
       id="path2985-8-9-2-9-5"
       style="fill:none;stroke:#000000;stroke-width:0.5;stroke-linecap:butt;stroke-miterlimit:10.43299961;stroke-opacity:1;stroke-dasharray:none;stroke-dashoffset:0"
       sodipodi:type="arc"
       transform="matrix(1,0,0,-1,227.83414,1015.7204)" />
    <path
       sodipodi:open="true"
       sodipodi:end="2.268928"
       sodipodi:start="0.87266463"
       d="m 108.74774,75.633219 c -12.082089,10.138074 -29.699111,10.138074 -41.781197,0"
       sodipodi:ry="32.5"
       sodipodi:rx="32.5"
       sodipodi:cy="50.736774"
       sodipodi:cx="87.85714"
       id="path2985-8-9-2-1-9-5"
       style="fill:none;stroke:#000000;stroke-width:0.5;stroke-linecap:butt;stroke-miterlimit:10.43299961;stroke-opacity:1;stroke-dasharray:none;stroke-dashoffset:0"
       sodipodi:type="arc"
       transform="matrix(1,0,0,-1,238.56111,1021.698)" />
    <path
       sodipodi:open="true"
       sodipodi:end="2.268928"
       sodipodi:start="0.87266463"
       d="m 108.74774,75.633219 c -12.082089,10.138074 -29.699111,10.138074 -41.781197,0"
       sodipodi:ry="32.5"
       sodipodi:rx="32.5"
       sodipodi:cy="50.736774"
       sodipodi:cx="87.85714"
       id="path2985-8-9-2-1-7-4"
       style="fill:none;stroke:#000000;stroke-width:0.5;stroke-linecap:butt;stroke-miterlimit:10.43299961;stroke-opacity:1;stroke-dasharray:none;stroke-dashoffset:0"
       sodipodi:type="arc"
       transform="matrix(1,0,0,-1,241.54501,1022.5236)" />
    <path
       sodipodi:open="true"
       sodipodi:end="2.268928"
       sodipodi:start="0.87266463"
       d="m 108.74774,75.633219 c -12.082089,10.138074 -29.699111,10.138074 -41.781197,0"
       sodipodi:ry="32.5"
       sodipodi:rx="32.5"
       sodipodi:cy="50.736774"
       sodipodi:cx="87.85714"
       id="path2985-8-9-2-1-3-4"
       style="fill:none;stroke:#000000;stroke-width:0.5;stroke-linecap:butt;stroke-miterlimit:10.43299961;stroke-opacity:1;stroke-dasharray:none;stroke-dashoffset:0"
       sodipodi:type="arc"
       transform="matrix(1,0,0,-1,257.31833,1022.1706)" />
    <path
       sodipodi:open="true"
       sodipodi:end="2.268928"
       sodipodi:start="0.87266463"
       d="m 108.74774,75.633219 c -12.082089,10.138074 -29.699111,10.138074 -41.781197,0"
       sodipodi:ry="32.5"
       sodipodi:rx="32.5"
       sodipodi:cy="50.736774"
       sodipodi:cx="87.85714"
       id="path2985-8-9-2-1-6-0"
       style="fill:none;stroke:#000000;stroke-width:1.5;stroke-linecap:butt;stroke-miterlimit:10.43299961;stroke-opacity:1;stroke-dasharray:none;stroke-dashoffset:0"
       sodipodi:type="arc"
       transform="matrix(1,0,0,-1,253.26577,1023.0063)" />
    <path
       sodipodi:open="true"
       sodipodi:end="2.268928"
       sodipodi:start="0.87266463"
       d="m 108.74774,75.633219 c -12.082089,10.138074 -29.699111,10.138074 -41.781197,0"
       sodipodi:ry="32.5"
       sodipodi:rx="32.5"
       sodipodi:cy="50.736774"
       sodipodi:cx="87.85714"
       id="path2985-8-9-2-1-4-5"
       style="fill:none;stroke:#000000;stroke-width:0.5;stroke-linecap:butt;stroke-miterlimit:10.43299961;stroke-opacity:1;stroke-dasharray:none;stroke-dashoffset:0"
       sodipodi:type="arc"
       transform="matrix(1,0,0,-1,269.61534,1015.7204)" />
    <path
       sodipodi:open="true"
       sodipodi:end="2.268928"
       sodipodi:start="0.87266463"
       d="m 108.74774,75.633219 c -12.082089,10.138074 -29.699111,10.138074 -41.781197,0"
       sodipodi:ry="32.5"
       sodipodi:rx="32.5"
       sodipodi:cy="50.736774"
       sodipodi:cx="87.85714"
       id="path2985-8-9-2-1-2-8"
       style="fill:none;stroke:#000000;stroke-width:0.5;stroke-linecap:butt;stroke-miterlimit:10.43299961;stroke-opacity:1;stroke-dasharray:none;stroke-dashoffset:0"
       sodipodi:type="arc"
       transform="matrix(1,0,0,-1,232.78351,1019.1496)" />
    <path
       sodipodi:open="true"
       sodipodi:end="2.268928"
       sodipodi:start="0.87266463"
       d="m 108.74774,75.633219 c -12.082089,10.138074 -29.699111,10.138074 -41.781197,0"
       sodipodi:ry="32.5"
       sodipodi:rx="32.5"
       sodipodi:cy="50.736774"
       sodipodi:cx="87.85714"
       id="path2985-8-9-2-1-20-9"
       style="fill:none;stroke:#000000;stroke-width:0.5;stroke-linecap:butt;stroke-miterlimit:10.43299961;stroke-opacity:1;stroke-dasharray:none;stroke-dashoffset:0"
       sodipodi:type="arc"
       transform="matrix(1,0,0,-1,230.28302,1017.5867)" />
    <path
       sodipodi:open="true"
       sodipodi:end="2.268928"
       sodipodi:start="0.87266463"
       d="m 108.74774,75.633219 c -12.082089,10.138074 -29.699111,10.138074 -41.781197,0"
       sodipodi:ry="32.5"
       sodipodi:rx="32.5"
       sodipodi:cy="50.736774"
       sodipodi:cx="87.85714"
       id="path2985-8-9-2-1-49-7"
       style="fill:none;stroke:#000000;stroke-width:0.5;stroke-linecap:butt;stroke-miterlimit:10.43299961;stroke-opacity:1;stroke-dasharray:none;stroke-dashoffset:0"
       sodipodi:type="arc"
       transform="matrix(1,0,0,-1,245.30927,1023.1447)" />
    <path
       sodipodi:nodetypes="ccc"
       inkscape:connector-curvature="0"
       id="path4477-8-8"
       d="m 627.13989,943.6138 -92.11286,0 0,-48.10612"
       style="fill:none;stroke:#808080;stroke-width:1.5;stroke-linecap:butt;stroke-linejoin:miter;stroke-miterlimit:4;stroke-opacity:1;stroke-dasharray:none;marker-start:url(#Arrow1Mstart8);marker-end:url(#Arrow1MendQ)" />
    <g
       transform="translate(177.28177,-123.74369)"
       id="g4231">
      <path
         sodipodi:type="arc"
         style="fill:none;stroke:#000000;stroke-width:1.5;stroke-linecap:butt;stroke-miterlimit:10.43299961;stroke-opacity:1;stroke-dasharray:none;stroke-dashoffset:0"
         id="path2985-2"
         sodipodi:cx="87.85714"
         sodipodi:cy="50.736774"
         sodipodi:rx="32.5"
         sodipodi:ry="32.5"
         d="m 118.39715,39.621121 c 6.13901,16.866782 -2.55757,35.516658 -19.424357,41.655664 -16.866782,6.139006 -35.516658,-2.557575 -41.655664,-19.424357 -2.613319,-7.180037 -2.613319,-15.051271 0,-22.231308"
         transform="translate(238.82142,1028.2504)"
         sodipodi:start="5.9341195"
         sodipodi:end="9.7738438"
         sodipodi:open="true" />
      <path
         transform="matrix(1,0,0,-1,270.07442,1151.1093)"
         sodipodi:type="arc"
         style="fill:none;stroke:#000000;stroke-width:0.5;stroke-linecap:butt;stroke-miterlimit:10.43299961;stroke-opacity:1;stroke-dasharray:none;stroke-dashoffset:0"
         id="path2985-8-5"
         sodipodi:cx="87.85714"
         sodipodi:cy="50.736774"
         sodipodi:rx="32.5"
         sodipodi:ry="32.5"
         d="m 118.39715,39.621121 c 6.13901,16.866782 -2.55757,35.516658 -19.424357,41.655664 -16.866782,6.139006 -35.516658,-2.557575 -41.655664,-19.424357 -2.613319,-7.180037 -2.613319,-15.051271 0,-22.231308"
         sodipodi:start="5.9341195"
         sodipodi:end="9.7738438"
         sodipodi:open="true" />
      <path
         transform="matrix(1,0,0,-1,251.22148,1145.0001)"
         sodipodi:type="arc"
         style="fill:none;stroke:#000000;stroke-width:0.5;stroke-linecap:butt;stroke-miterlimit:10.43299961;stroke-opacity:1;stroke-dasharray:none;stroke-dashoffset:0"
         id="path2985-8-9-4"
         sodipodi:cx="87.85714"
         sodipodi:cy="50.736774"
         sodipodi:rx="32.5"
         sodipodi:ry="32.5"
         d="m 118.39715,39.621121 c 6.13901,16.866782 -2.55757,35.516658 -19.424357,41.655664 -16.866782,6.139006 -35.516658,-2.557575 -41.655664,-19.424357 -2.613319,-7.180037 -2.613319,-15.051271 0,-22.231308"
         sodipodi:start="5.9341195"
         sodipodi:end="9.7738438"
         sodipodi:open="true" />
      <path
         transform="matrix(1,0,0,-1,243.89275,1138.8115)"
         sodipodi:type="arc"
         style="fill:none;stroke:#000000;stroke-width:0.5;stroke-linecap:butt;stroke-miterlimit:10.43299961;stroke-opacity:1;stroke-dasharray:none;stroke-dashoffset:0"
         id="path2985-8-9-2-8"
         sodipodi:cx="87.85714"
         sodipodi:cy="50.736774"
         sodipodi:rx="32.5"
         sodipodi:ry="32.5"
         d="m 118.39715,39.621121 c 6.13901,16.866782 -2.55757,35.516658 -19.424357,41.655664 -16.866782,6.139006 -35.516658,-2.557575 -41.655664,-19.424357 -2.613319,-7.180037 -2.613319,-15.051271 0,-22.231308"
         sodipodi:start="5.9341195"
         sodipodi:end="9.7738438"
         sodipodi:open="true" />
      <path
         transform="matrix(1,0,0,-1,254.78034,1147.6539)"
         sodipodi:type="arc"
         style="fill:none;stroke:#000000;stroke-width:0.5;stroke-linecap:butt;stroke-miterlimit:10.43299961;stroke-opacity:1;stroke-dasharray:none;stroke-dashoffset:0"
         id="path2985-8-9-2-1-77"
         sodipodi:cx="87.85714"
         sodipodi:cy="50.736774"
         sodipodi:rx="32.5"
         sodipodi:ry="32.5"
         d="m 118.39715,39.621121 c 6.13901,16.866782 -2.55757,35.516658 -19.424357,41.655664 -16.866782,6.139006 -35.516658,-2.557575 -41.655664,-19.424357 -2.613319,-7.180037 -2.613319,-15.051271 0,-22.231308"
         sodipodi:start="5.9341195"
         sodipodi:end="9.7738438"
         sodipodi:open="true" />
      <path
         transform="matrix(1,0,0,-1,241.00093,1134.4907)"
         sodipodi:type="arc"
         style="fill:none;stroke:#000000;stroke-width:0.5;stroke-linecap:butt;stroke-miterlimit:10.43299961;stroke-opacity:1;stroke-dasharray:none;stroke-dashoffset:0"
         id="path2985-8-9-2-1-9-1"
         sodipodi:cx="87.85714"
         sodipodi:cy="50.736774"
         sodipodi:rx="32.5"
         sodipodi:ry="32.5"
         d="m 118.39715,39.621121 c 6.13901,16.866782 -2.55757,35.516658 -19.424357,41.655664 -16.866782,6.139006 -35.516658,-2.557575 -41.655664,-19.424357 -2.613319,-7.180037 -2.613319,-15.051271 0,-22.231308"
         sodipodi:start="5.9341195"
         sodipodi:end="9.7738438"
         sodipodi:open="true" />
      <path
         transform="matrix(1,0,0,-1,238.63633,1129.2016)"
         sodipodi:type="arc"
         style="fill:none;stroke:#000000;stroke-width:0.5;stroke-linecap:butt;stroke-miterlimit:10.43299961;stroke-opacity:1;stroke-dasharray:none;stroke-dashoffset:0"
         id="path2985-8-9-2-1-7-9"
         sodipodi:cx="87.85714"
         sodipodi:cy="50.736774"
         sodipodi:rx="32.5"
         sodipodi:ry="32.5"
         d="m 118.39715,39.621121 c 6.13901,16.866782 -2.55757,35.516658 -19.424357,41.655664 -16.866782,6.139006 -35.516658,-2.557575 -41.655664,-19.424357 -2.613319,-7.180037 -2.613319,-15.051271 0,-22.231308"
         sodipodi:start="5.9341195"
         sodipodi:end="9.7738438"
         sodipodi:open="true" />
      <path
         transform="matrix(1,0,0,-1,247.02248,1142.2236)"
         sodipodi:type="arc"
         style="fill:none;stroke:#000000;stroke-width:0.5;stroke-linecap:butt;stroke-miterlimit:10.43299961;stroke-opacity:1;stroke-dasharray:none;stroke-dashoffset:0"
         id="path2985-8-9-2-1-3-7"
         sodipodi:cx="87.85714"
         sodipodi:cy="50.736774"
         sodipodi:rx="32.5"
         sodipodi:ry="32.5"
         d="m 118.39715,39.621121 c 6.13901,16.866782 -2.55757,35.516658 -19.424357,41.655664 -16.866782,6.139006 -35.516658,-2.557575 -41.655664,-19.424357 -2.613319,-7.180037 -2.613319,-15.051271 0,-22.231308"
         sodipodi:start="5.9341195"
         sodipodi:end="9.7738438"
         sodipodi:open="true" />
      <path
         transform="matrix(1,0,0,-1,284.79686,1147.2138)"
         sodipodi:type="arc"
         style="fill:none;stroke:#000000;stroke-width:1.5;stroke-linecap:butt;stroke-miterlimit:10.43299961;stroke-opacity:1;stroke-dasharray:none;stroke-dashoffset:0"
         id="path2985-8-9-2-1-6-6"
         sodipodi:cx="87.85714"
         sodipodi:cy="50.736774"
         sodipodi:rx="32.5"
         sodipodi:ry="32.5"
         d="m 118.39715,39.621121 c 6.13901,16.866782 -2.55757,35.516658 -19.424357,41.655664 -16.866782,6.139006 -35.516658,-2.557575 -41.655664,-19.424357 -2.613319,-7.180037 -2.613319,-15.051271 0,-22.231308"
         sodipodi:start="5.9341195"
         sodipodi:end="9.7738438"
         sodipodi:open="true" />
      <path
         transform="matrix(1,0,0,-1,259.71639,1149.6459)"
         sodipodi:type="arc"
         style="fill:none;stroke:#000000;stroke-width:0.5;stroke-linecap:butt;stroke-miterlimit:10.43299961;stroke-opacity:1;stroke-dasharray:none;stroke-dashoffset:0"
         id="path2985-8-9-2-1-4-1"
         sodipodi:cx="87.85714"
         sodipodi:cy="50.736774"
         sodipodi:rx="32.5"
         sodipodi:ry="32.5"
         d="m 118.39715,39.621121 c 6.13901,16.866782 -2.55757,35.516658 -19.424357,41.655664 -16.866782,6.139006 -35.516658,-2.557575 -41.655664,-19.424357 -2.613319,-7.180037 -2.613319,-15.051271 0,-22.231308"
         sodipodi:start="5.9341195"
         sodipodi:end="9.7738438"
         sodipodi:open="true" />
      <path
         transform="matrix(1,0,0,-1,238.63633,1129.2016)"
         sodipodi:type="arc"
         style="fill:none;stroke:#000000;stroke-width:0.5;stroke-linecap:butt;stroke-miterlimit:10.43299961;stroke-opacity:1;stroke-dasharray:none;stroke-dashoffset:0"
         id="path2985-8-9-2-1-2-9"
         sodipodi:cx="87.85714"
         sodipodi:cy="50.736774"
         sodipodi:rx="32.5"
         sodipodi:ry="32.5"
         d="m 118.39715,39.621121 c 6.13901,16.866782 -2.55757,35.516658 -19.424357,41.655664 -16.866782,6.139006 -35.516658,-2.557575 -41.655664,-19.424357 -2.613319,-7.180037 -2.613319,-15.051271 0,-22.231308"
         sodipodi:start="5.9341195"
         sodipodi:end="9.7738438"
         sodipodi:open="true" />
      <path
         transform="matrix(1,0,0,-1,238.82142,1107.4926)"
         sodipodi:type="arc"
         style="fill:none;stroke:#000000;stroke-width:0.5;stroke-linecap:butt;stroke-miterlimit:10.43299961;stroke-opacity:1;stroke-dasharray:none;stroke-dashoffset:0"
         id="path2985-8-9-2-1-20-6"
         sodipodi:cx="87.85714"
         sodipodi:cy="50.736774"
         sodipodi:rx="32.5"
         sodipodi:ry="32.5"
         d="m 118.39715,39.621121 c 6.13901,16.866782 -2.55757,35.516658 -19.424357,41.655664 -16.866782,6.139006 -35.516658,-2.557575 -41.655664,-19.424357 -2.613319,-7.180037 -2.613319,-15.051271 0,-22.231308"
         sodipodi:start="5.9341195"
         sodipodi:end="9.7738438"
         sodipodi:open="true" />
      <path
         transform="matrix(1,0,0,-1,264.89608,1150.8066)"
         sodipodi:type="arc"
         style="fill:none;stroke:#000000;stroke-width:0.5;stroke-linecap:butt;stroke-miterlimit:10.43299961;stroke-opacity:1;stroke-dasharray:none;stroke-dashoffset:0"
         id="path2985-8-9-2-1-49-3"
         sodipodi:cx="87.85714"
         sodipodi:cy="50.736774"
         sodipodi:rx="32.5"
         sodipodi:ry="32.5"
         d="m 118.39715,39.621121 c 6.13901,16.866782 -2.55757,35.516658 -19.424357,41.655664 -16.866782,6.139006 -35.516658,-2.557575 -41.655664,-19.424357 -2.613319,-7.180037 -2.613319,-15.051271 0,-22.231308"
         sodipodi:start="5.9341195"
         sodipodi:end="9.7738438"
         sodipodi:open="true" />
      <path
         transform="matrix(1,0,0,-1,274.18293,1150.7551)"
         sodipodi:type="arc"
         style="fill:none;stroke:#000000;stroke-width:0.5;stroke-linecap:butt;stroke-miterlimit:10.43299961;stroke-opacity:1;stroke-dasharray:none;stroke-dashoffset:0"
         id="path2985-8-5-4"
         sodipodi:cx="87.85714"
         sodipodi:cy="50.736774"
         sodipodi:rx="32.5"
         sodipodi:ry="32.5"
         d="m 118.39715,39.621121 c 6.13901,16.866782 -2.55757,35.516658 -19.424357,41.655664 -16.866782,6.139006 -35.516658,-2.557575 -41.655664,-19.424357 -2.613319,-7.180037 -2.613319,-15.051271 0,-22.231308"
         sodipodi:start="5.9341195"
         sodipodi:end="9.7738438"
         sodipodi:open="true" />
      <path
         transform="matrix(1,0,0,-1,279.45104,1149.5028)"
         sodipodi:type="arc"
         style="fill:none;stroke:#000000;stroke-width:0.5;stroke-linecap:butt;stroke-miterlimit:10.43299961;stroke-opacity:1;stroke-dasharray:none;stroke-dashoffset:0"
         id="path2985-8-5-48"
         sodipodi:cx="87.85714"
         sodipodi:cy="50.736774"
         sodipodi:rx="32.5"
         sodipodi:ry="32.5"
         d="m 118.39715,39.621121 c 6.13901,16.866782 -2.55757,35.516658 -19.424357,41.655664 -16.866782,6.139006 -35.516658,-2.557575 -41.655664,-19.424357 -2.613319,-7.180037 -2.613319,-15.051271 0,-22.231308"
         sodipodi:start="5.9341195"
         sodipodi:end="9.7738438"
         sodipodi:open="true" />
      <path
         transform="matrix(1,0,0,-1,288.92449,1144.5717)"
         sodipodi:type="arc"
         style="fill:none;stroke:#000000;stroke-width:0.5;stroke-linecap:butt;stroke-miterlimit:10.43299961;stroke-opacity:1;stroke-dasharray:none;stroke-dashoffset:0"
         id="path2985-8-5-9"
         sodipodi:cx="87.85714"
         sodipodi:cy="50.736774"
         sodipodi:rx="32.5"
         sodipodi:ry="32.5"
         d="m 118.39715,39.621121 c 6.13901,16.866782 -2.55757,35.516658 -19.424357,41.655664 -16.866782,6.139006 -35.516658,-2.557575 -41.655664,-19.424357 -2.613319,-7.180037 -2.613319,-15.051271 0,-22.231308"
         sodipodi:start="5.9341195"
         sodipodi:end="9.7738438"
         sodipodi:open="true" />
      <path
         transform="matrix(1,0,0,-1,293.10188,1140.814)"
         sodipodi:type="arc"
         style="fill:none;stroke:#000000;stroke-width:0.5;stroke-linecap:butt;stroke-miterlimit:10.43299961;stroke-opacity:1;stroke-dasharray:none;stroke-dashoffset:0"
         id="path2985-8-5-1"
         sodipodi:cx="87.85714"
         sodipodi:cy="50.736774"
         sodipodi:rx="32.5"
         sodipodi:ry="32.5"
         d="m 118.39715,39.621121 c 6.13901,16.866782 -2.55757,35.516658 -19.424357,41.655664 -16.866782,6.139006 -35.516658,-2.557575 -41.655664,-19.424357 -2.613319,-7.180037 -2.613319,-15.051271 0,-22.231308"
         sodipodi:start="5.9341195"
         sodipodi:end="9.7738438"
         sodipodi:open="true" />
      <path
         transform="matrix(1,0,0,-1,296.96629,1135.7638)"
         sodipodi:type="arc"
         style="fill:none;stroke:#000000;stroke-width:0.5;stroke-linecap:butt;stroke-miterlimit:10.43299961;stroke-opacity:1;stroke-dasharray:none;stroke-dashoffset:0"
         id="path2985-8-5-6"
         sodipodi:cx="87.85714"
         sodipodi:cy="50.736774"
         sodipodi:rx="32.5"
         sodipodi:ry="32.5"
         d="m 118.39715,39.621121 c 6.13901,16.866782 -2.55757,35.516658 -19.424357,41.655664 -16.866782,6.139006 -35.516658,-2.557575 -41.655664,-19.424357 -2.613319,-7.180037 -2.613319,-15.051271 0,-22.231308"
         sodipodi:start="5.9341195"
         sodipodi:end="9.7738438"
         sodipodi:open="true" />
      <path
         transform="matrix(1,0,0,-1,299.71635,1129.2016)"
         sodipodi:type="arc"
         style="fill:none;stroke:#000000;stroke-width:0.5;stroke-linecap:butt;stroke-miterlimit:10.43299961;stroke-opacity:1;stroke-dasharray:none;stroke-dashoffset:0"
         id="path2985-8-5-5"
         sodipodi:cx="87.85714"
         sodipodi:cy="50.736774"
         sodipodi:rx="32.5"
         sodipodi:ry="32.5"
         d="m 118.39715,39.621121 c 6.13901,16.866782 -2.55757,35.516658 -19.424357,41.655664 -16.866782,6.139006 -35.516658,-2.557575 -41.655664,-19.424357 -2.613319,-7.180037 -2.613319,-15.051271 0,-22.231308"
         sodipodi:start="5.9341195"
         sodipodi:end="9.7738438"
         sodipodi:open="true" />
      <path
         transform="matrix(1,0,0,-1,301.79823,1120.761)"
         sodipodi:type="arc"
         style="fill:none;stroke:#000000;stroke-width:0.5;stroke-linecap:butt;stroke-miterlimit:10.43299961;stroke-opacity:1;stroke-dasharray:none;stroke-dashoffset:0"
         id="path2985-8-5-60"
         sodipodi:cx="87.85714"
         sodipodi:cy="50.736774"
         sodipodi:rx="32.5"
         sodipodi:ry="32.5"
         d="m 118.39715,39.621121 c 6.13901,16.866782 -2.55757,35.516658 -19.424357,41.655664 -16.866782,6.139006 -35.516658,-2.557575 -41.655664,-19.424357 -2.613319,-7.180037 -2.613319,-15.051271 0,-22.231308"
         sodipodi:start="5.9341195"
         sodipodi:end="9.7738438"
         sodipodi:open="true" />
      <path
         transform="matrix(1,0,0,-1,301.79401,1116.3892)"
         sodipodi:type="arc"
         style="fill:none;stroke:#000000;stroke-width:0.5;stroke-linecap:butt;stroke-miterlimit:10.43299961;stroke-opacity:1;stroke-dasharray:none;stroke-dashoffset:0"
         id="path2985-8-5-0"
         sodipodi:cx="87.85714"
         sodipodi:cy="50.736774"
         sodipodi:rx="32.5"
         sodipodi:ry="32.5"
         d="m 118.39715,39.621121 c 6.13901,16.866782 -2.55757,35.516658 -19.424357,41.655664 -16.866782,6.139006 -35.516658,-2.557575 -41.655664,-19.424357 -2.613319,-7.180037 -2.613319,-15.051271 0,-22.231308"
         sodipodi:start="5.9341195"
         sodipodi:end="9.7738438"
         sodipodi:open="true" />
      <path
         transform="matrix(1,0,0,-1,236.69069,1117.12)"
         sodipodi:type="arc"
         style="fill:none;stroke:#000000;stroke-width:0.5;stroke-linecap:butt;stroke-miterlimit:10.43299961;stroke-opacity:1;stroke-dasharray:none;stroke-dashoffset:0"
         id="path2985-8-9-2-1-20-6-3"
         sodipodi:cx="87.85714"
         sodipodi:cy="50.736774"
         sodipodi:rx="32.5"
         sodipodi:ry="32.5"
         d="m 118.39715,39.621121 c 6.13901,16.866782 -2.55757,35.516658 -19.424357,41.655664 -16.866782,6.139006 -35.516658,-2.557575 -41.655664,-19.424357 -2.613319,-7.180037 -2.613319,-15.051271 0,-22.231308"
         sodipodi:start="5.9341195"
         sodipodi:end="9.7738438"
         sodipodi:open="true" />
      <path
         transform="matrix(1,0,0,-1,299.90144,1107.4926)"
         sodipodi:type="arc"
         style="fill:none;stroke:#000000;stroke-width:0.5;stroke-linecap:butt;stroke-miterlimit:10.43299961;stroke-opacity:1;stroke-dasharray:none;stroke-dashoffset:0"
         id="path2985-8-5-0-3"
         sodipodi:cx="87.85714"
         sodipodi:cy="50.736774"
         sodipodi:rx="32.5"
         sodipodi:ry="32.5"
         d="m 118.39715,39.621121 c 6.13901,16.866782 -2.55757,35.516658 -19.424357,41.655664 -16.866782,6.139006 -35.516658,-2.557575 -41.655664,-19.424357 -2.613319,-7.180037 -2.613319,-15.051271 0,-22.231308"
         sodipodi:start="5.9341195"
         sodipodi:end="9.7738438"
         sodipodi:open="true" />
    </g>
    <text
       transform="translate(0,875.19684)"
       sodipodi:linespacing="125%"
       id="text4149"
       y="158.9826"
       x="130.30968"
       style="font-size:11px;font-style:normal;font-variant:normal;font-weight:normal;font-stretch:normal;line-height:125%;letter-spacing:0px;word-spacing:0px;fill:#000000;fill-opacity:1;stroke:none;font-family:DejaVu Sans;-inkscape-font-specification:DejaVu Sans"
       xml:space="preserve"><tspan
         y="158.9826"
         x="130.30968"
         id="tspan4151"
         sodipodi:role="line" /></text>
    <text
       sodipodi:linespacing="125%"
       id="text4153-2"
       y="896.70715"
       x="298.76273"
       style="font-size:11px;font-style:normal;font-variant:normal;font-weight:normal;font-stretch:normal;line-height:125%;letter-spacing:0px;word-spacing:0px;fill:#000000;fill-opacity:1;stroke:none;font-family:cmr10;-inkscape-font-specification:cmr10"
       xml:space="preserve"><tspan
         style="font-style:normal;font-variant:normal;font-weight:normal;font-stretch:normal;font-family:Sans;-inkscape-font-specification:Sans"
         y="896.70715"
         x="298.76273"
         id="tspan4155-6"
         sodipodi:role="line">$\alpha=40\textrm{\textdegree}$</tspan></text>
    <text
       sodipodi:linespacing="125%"
       id="text4153-0"
       y="896.52075"
       x="461.76834"
       style="font-size:11px;font-style:normal;font-variant:normal;font-weight:normal;font-stretch:normal;line-height:125%;letter-spacing:0px;word-spacing:0px;fill:#000000;fill-opacity:1;stroke:none;font-family:cmr10;-inkscape-font-specification:cmr10"
       xml:space="preserve"><tspan
         style="font-style:normal;font-variant:normal;font-weight:normal;font-stretch:normal;font-family:Sans;-inkscape-font-specification:Sans"
         y="896.52075"
         x="461.76834"
         id="tspan4155-66"
         sodipodi:role="line">$\alpha=110\textrm{\textdegree}$</tspan></text>
    <path
       inkscape:connector-curvature="0"
       id="path4290-0"
       d="m 336.58188,940.08723 -24.8964,-20.8906"
       style="fill:none;stroke:#000000;stroke-width:0.75;stroke-linecap:butt;stroke-linejoin:miter;stroke-miterlimit:4;stroke-opacity:1;stroke-dasharray:0.75, 1.5;stroke-dashoffset:0" />
    <path
       inkscape:connector-curvature="0"
       id="path4290-0-9"
       d="m 336.58188,940.08723 24.8964,-20.8906"
       style="fill:none;stroke:#000000;stroke-width:0.75;stroke-linecap:butt;stroke-linejoin:miter;stroke-miterlimit:4;stroke-opacity:1;stroke-dasharray:0.75, 1.5;stroke-dashoffset:0" />
    <path
       inkscape:connector-curvature="0"
       id="path4290-0-5"
       d="m 361.47828,960.97783 -24.8964,-20.8906"
       style="fill:none;stroke:#000000;stroke-width:0.75;stroke-linecap:butt;stroke-linejoin:miter;stroke-miterlimit:4;stroke-opacity:1;stroke-dasharray:0.75, 1.5;stroke-dashoffset:0" />
    <path
       inkscape:connector-curvature="0"
       id="path4290-0-9-4"
       d="m 311.68548,960.97783 24.8964,-20.8906"
       style="fill:none;stroke:#000000;stroke-width:0.75;stroke-linecap:butt;stroke-linejoin:miter;stroke-miterlimit:4;stroke-opacity:1;stroke-dasharray:0.75, 1.5;stroke-dashoffset:0" />
    <text
       sodipodi:linespacing="125%"
       id="text4403"
       y="983.56989"
       x="318.23749"
       style="font-size:11px;font-style:normal;font-variant:normal;font-weight:normal;font-stretch:normal;line-height:125%;letter-spacing:0px;word-spacing:0px;fill:#000000;fill-opacity:1;stroke:none;font-family:cmr10;-inkscape-font-specification:cmr10"
       xml:space="preserve"><tspan
         style="font-size:14px"
         y="983.56989"
         x="318.23749"
         id="tspan4405"
         sodipodi:role="line">missing cone</tspan></text>
    <path
       sodipodi:nodetypes="cc"
       inkscape:connector-curvature="0"
       id="path4448"
       d="m 315.12369,980.8885 c -33.05748,1.45406 32.05092,-17.70419 22.36616,-34.9518"
       style="fill:none;stroke:#000000;stroke-width:0.5;stroke-linecap:butt;stroke-linejoin:miter;stroke-opacity:1" />
    <text
       sodipodi:linespacing="125%"
       id="text4153-2-4"
       y="958.20715"
       x="612.72388"
       style="font-size:11px;font-style:normal;font-variant:normal;font-weight:normal;font-stretch:normal;line-height:125%;letter-spacing:0px;word-spacing:0px;fill:#000000;fill-opacity:1;stroke:none;font-family:cmr10;-inkscape-font-specification:cmr10"
       xml:space="preserve"><tspan
         style="font-style:normal;font-variant:normal;font-weight:normal;font-stretch:normal;font-family:Sans;-inkscape-font-specification:Sans"
         y="958.20715"
         x="612.72388"
         id="tspan4155-6-5"
         sodipodi:role="line">$\nu_x$</tspan></text>
    <text
       sodipodi:linespacing="125%"
       id="text4473"
       y="889.28967"
       x="529.96136"
       style="font-size:11px;font-style:normal;font-variant:normal;font-weight:normal;font-stretch:normal;line-height:125%;letter-spacing:0px;word-spacing:0px;fill:#000000;fill-opacity:1;stroke:none;font-family:cmr10;-inkscape-font-specification:cmr10"
       xml:space="preserve"><tspan
         style="font-style:normal;font-variant:normal;font-weight:normal;font-stretch:normal;font-family:Sans;-inkscape-font-specification:Sans"
         y="889.28967"
         x="529.96136"
         id="tspan4475"
         sodipodi:role="line">$\nu_z$</tspan></text>
    <text
       sodipodi:linespacing="125%"
       id="text4473-3"
       y="914.21063"
       x="339.99667"
       style="font-size:11px;font-style:normal;font-variant:normal;font-weight:normal;font-stretch:normal;line-height:125%;letter-spacing:0px;word-spacing:0px;fill:#000000;fill-opacity:1;stroke:none;font-family:cmr10;-inkscape-font-specification:cmr10"
       xml:space="preserve"><tspan
         style="font-style:normal;font-variant:normal;font-weight:normal;font-stretch:normal;font-family:Sans;-inkscape-font-specification:Sans"
         y="914.21063"
         x="339.99667"
         id="tspan4475-4"
         sodipodi:role="line">$\nu_z$</tspan></text>
    <text
       sodipodi:linespacing="125%"
       id="text4153-2-4-5"
       y="954.57336"
       x="387.30292"
       style="font-size:11px;font-style:normal;font-variant:normal;font-weight:normal;font-stretch:normal;line-height:125%;letter-spacing:0px;word-spacing:0px;fill:#000000;fill-opacity:1;stroke:none;font-family:cmr10;-inkscape-font-specification:cmr10"
       xml:space="preserve"><tspan
         style="font-style:normal;font-variant:normal;font-weight:normal;font-stretch:normal;font-family:Sans;-inkscape-font-specification:Sans"
         y="954.57336"
         x="387.30292"
         id="tspan4155-6-5-5"
         sodipodi:role="line">$\nu_x$</tspan></text>
  </g>
</svg>
