<?xml version="1.0" encoding="UTF-8" standalone="no"?>
<!-- Created with Inkscape (http://www.inkscape.org/) -->

<svg
   xmlns:dc="http://purl.org/dc/elements/1.1/"
   xmlns:cc="http://creativecommons.org/ns#"
   xmlns:rdf="http://www.w3.org/1999/02/22-rdf-syntax-ns#"
   xmlns:svg="http://www.w3.org/2000/svg"
   xmlns="http://www.w3.org/2000/svg"
   xmlns:sodipodi="http://sodipodi.sourceforge.net/DTD/sodipodi-0.dtd"
   xmlns:inkscape="http://www.inkscape.org/namespaces/inkscape"
   width="305.28586"
   height="244.37407"
   id="svg2"
   version="1.1"
   inkscape:version="0.48.2 r9819"
   sodipodi:docname="obj-rev-full.svg">
  <defs
     id="defs4">
    <marker
       inkscape:stockid="Arrow1Mstart"
       orient="auto"
       refY="0"
       refX="0"
       id="Arrow1Mstart"
       style="overflow:visible">
      <path
         id="path3845"
         d="M 0,0 5,-5 -12.5,0 5,5 0,0 z"
         style="fill-rule:evenodd;stroke:#000000;stroke-width:1pt;marker-start:none"
         transform="matrix(0.4,0,0,0.4,4,0)"
         inkscape:connector-curvature="0" />
    </marker>
    <marker
       inkscape:stockid="Arrow1Mend"
       orient="auto"
       refY="0"
       refX="0"
       id="Arrow1Mend"
       style="overflow:visible">
      <path
         id="path3829"
         d="M 0,0 5,-5 -12.5,0 5,5 0,0 z"
         style="fill-rule:evenodd;stroke:#000000;stroke-width:1pt;marker-start:none"
         transform="matrix(-0.4,0,0,-0.4,-4,0)"
         inkscape:connector-curvature="0" />
    </marker>
    <marker
       inkscape:stockid="Arrow1Mstart"
       orient="auto"
       refY="0"
       refX="0"
       id="Arrow1Mstart-5"
       style="overflow:visible">
      <path
         inkscape:connector-curvature="0"
         id="path3845-4"
         d="M 0,0 5,-5 -12.5,0 5,5 0,0 z"
         style="fill-rule:evenodd;stroke:#000000;stroke-width:1pt;marker-start:none"
         transform="matrix(0.4,0,0,0.4,4,0)" />
    </marker>
  </defs>
  <sodipodi:namedview
     id="base"
     pagecolor="#ffffff"
     bordercolor="#666666"
     borderopacity="1.0"
     inkscape:pageopacity="0.0"
     inkscape:pageshadow="2"
     inkscape:zoom="2"
     inkscape:cx="162.17667"
     inkscape:cy="142.17079"
     inkscape:document-units="px"
     inkscape:current-layer="layer1"
     showgrid="false"
     units="mm"
     inkscape:window-width="1364"
     inkscape:window-height="757"
     inkscape:window-x="0"
     inkscape:window-y="9"
     inkscape:window-maximized="0"
     fit-margin-top="0"
     fit-margin-left="0"
     fit-margin-right="0"
     fit-margin-bottom="0" />
  <metadata
     id="metadata7">
    <rdf:RDF>
      <cc:Work
         rdf:about="">
        <dc:format>image/svg+xml</dc:format>
        <dc:type
           rdf:resource="http://purl.org/dc/dcmitype/StillImage" />
        <dc:title />
      </cc:Work>
    </rdf:RDF>
  </metadata>
  <g
     inkscape:label="Layer 1"
     inkscape:groupmode="layer"
     id="layer1"
     transform="translate(-26.883886,-731.3321)"
     style="display:inline">
    <path
       sodipodi:type="arc"
       style="fill:none;stroke:#000000;stroke-width:0.40188718;stroke-miterlimit:4;stroke-opacity:1;stroke-dasharray:none;stroke-dashoffset:0"
       id="path2985"
       sodipodi:cx="53.214287"
       sodipodi:cy="77.165344"
       sodipodi:rx="31.428572"
       sodipodi:ry="31.428572"
       d="M 63.96349,47.632147 C 80.000333,53.46908 88.448529,71.037265 82.994986,87.208503"
       transform="matrix(3.705544,0,0,3.7052964,-110.31123,570.55049)"
       sodipodi:start="5.0614548"
       sodipodi:end="6.6084452"
       sodipodi:open="true" />
    <path
       style="fill:none;stroke:#000000;stroke-width:1.65462327;stroke-linecap:butt;stroke-linejoin:miter;stroke-miterlimit:4;stroke-opacity:1;stroke-dasharray:6.61849314, 3.30924658, 1.65462328, 3.30924658;stroke-dashoffset:0"
       d="m 72.117077,856.47102 259.225363,0"
       id="path2987"
       inkscape:connector-curvature="0"
       sodipodi:nodetypes="cc" />
    <path
       style="fill:none;stroke:#000000;stroke-width:0.82731164;stroke-linecap:butt;stroke-linejoin:miter;stroke-miterlimit:4;stroke-opacity:1;stroke-dasharray:none"
       d="m 203.15133,753.98864 0,138.95644"
       id="path2989"
       inkscape:connector-curvature="0"
       sodipodi:nodetypes="cc" />
    <rect
       style="fill:#ffffff;fill-opacity:1;fill-rule:nonzero;stroke:none"
       id="rect3094"
       width="4.9123578"
       height="4.3667526"
       x="200.68867"
       y="774.80115" />
    <path
       style="fill:none;stroke:#000000;stroke-width:0.99277407;stroke-linecap:butt;stroke-linejoin:miter;stroke-miterlimit:4;stroke-opacity:1;stroke-dasharray:0.99277396, 0.99277396;stroke-dashoffset:0"
       d="m 86.876645,752.63082 0,179.03043"
       id="path3155"
       inkscape:connector-curvature="0"
       sodipodi:nodetypes="cc" />
    <path
       style="fill:none;stroke:#000000;stroke-width:0.99277401;stroke-linecap:butt;stroke-linejoin:miter;stroke-miterlimit:4;stroke-opacity:1;stroke-dasharray:0.99277396, 0.99277396;stroke-dashoffset:0"
       d="m 280.73404,751.51957 0,142.63956"
       id="path3163"
       inkscape:connector-curvature="0"
       sodipodi:nodetypes="cc" />
    <path
       style="fill:none;stroke:#000000;stroke-width:0.99277407;stroke-linecap:butt;stroke-linejoin:miter;stroke-miterlimit:4;stroke-opacity:1;stroke-dasharray:0.99277396, 0.99277396;stroke-dashoffset:0"
       d="m 125.56858,732.07893 0,162.98336"
       id="path3163-4"
       inkscape:connector-curvature="0"
       sodipodi:nodetypes="cc" />
    <path
       style="fill:none;stroke:#000000;stroke-width:0.99277407;stroke-linecap:butt;stroke-linejoin:miter;stroke-miterlimit:4;stroke-opacity:1;stroke-dasharray:none;marker-end:url(#Arrow1Mend)"
       d="M 75.5901,830.09117 184.99598,800.18041"
       id="path3786"
       inkscape:connector-curvature="0"
       sodipodi:nodetypes="cc" />
    <path
       style="fill:none;stroke:#000000;stroke-width:0.99299997;stroke-linecap:butt;stroke-linejoin:miter;stroke-miterlimit:4;stroke-opacity:1;stroke-dasharray:none;marker-mid:none;marker-end:url(#Arrow1Mend)"
       d="m 87.755384,827.28398 36.495856,0 176.28277,64.19141"
       id="path3788"
       inkscape:connector-curvature="0"
       sodipodi:nodetypes="ccc" />
    <path
       style="fill:none;stroke:#000000;stroke-width:0.99277407;stroke-linecap:butt;stroke-linejoin:miter;stroke-miterlimit:4;stroke-opacity:1;stroke-dasharray:none;marker-end:url(#Arrow1Mend)"
       d="m 203.06272,799.2121 118.8455,43.97926"
       id="path3790"
       inkscape:connector-curvature="0"
       sodipodi:nodetypes="cc" />
    <g
       id="g4463"
       transform="matrix(3.705544,0,0,3.7052964,-90.980726,-2668.2629)">
      <path
         inkscape:connector-curvature="0"
         id="path4443"
         d="m 42.805214,942.8869 2.77792,2.77792"
         style="fill:none;stroke:#000000;stroke-width:0.13396241;stroke-linecap:butt;stroke-linejoin:miter;stroke-miterlimit:4;stroke-opacity:1;stroke-dasharray:none" />
      <path
         inkscape:connector-curvature="0"
         id="path4443-7"
         d="m 45.583134,942.8869 -2.77792,2.77792"
         style="fill:none;stroke:#000000;stroke-width:0.13396241;stroke-linecap:butt;stroke-linejoin:miter;stroke-miterlimit:4;stroke-opacity:1;stroke-dasharray:none;display:inline" />
    </g>
    <text
       xml:space="preserve"
       style="font-size:13px;font-style:normal;font-variant:normal;font-weight:normal;font-stretch:normal;line-height:125%;letter-spacing:0px;word-spacing:0px;fill:#000000;fill-opacity:1;stroke:none;font-family:Gentium;-inkscape-font-specification:Gentium"
       x="55.996185"
       y="837.44348"
       id="text4467"
       sodipodi:linespacing="125%"
       transform="scale(1.0000334,0.9999666)"><tspan
         sodipodi:role="line"
         id="tspan4469"
         x="55.996185"
         y="837.44348">$\p$</tspan></text>
    <g
       transform="matrix(0,-2.3167248,5.9265295,0,-105.01759,-2738.3072)"
       style="font-size:13.37678719px;font-style:normal;font-variant:normal;font-weight:normal;font-stretch:normal;line-height:125%;letter-spacing:0px;word-spacing:0px;fill:#000000;fill-opacity:1;stroke:none;font-family:Gentium;-inkscape-font-specification:Gentium"
       id="text4471">
      <path
         d="m -1571.9907,39.426108 c -0.1698,0.104516 -0.3288,0.224263 -0.4768,0.35924 -0.1437,0.134997 -0.27,0.285224 -0.3788,0.450683 -0.1089,0.161123 -0.1938,0.337477 -0.2548,0.529062 -0.061,0.191604 -0.091,0.400616 -0.091,0.627037 0,0.252565 0.013,0.4594 0.039,0.620506 0.03,0.161121 0.061,0.313525 0.091,0.457214 0.035,0.139348 0.065,0.289576 0.091,0.450683 0.03,0.16112 0.046,0.367955 0.046,0.620505 0,0.182892 -0.028,0.3636 -0.085,0.542126 -0.052,0.174182 -0.1285,0.33965 -0.2286,0.496404 -0.1002,0.152409 -0.2243,0.291751 -0.3724,0.418024 -0.1436,0.126283 -0.3069,0.228612 -0.4898,0.306987 0.2177,0.03919 0.4006,0.108865 0.5486,0.209013 0.1524,0.0958 0.2744,0.217725 0.3658,0.365771 0.091,0.148054 0.1568,0.322231 0.196,0.522531 0.043,0.195952 0.065,0.413673 0.065,0.653163 0,0.261268 -0.015,0.483343 -0.046,0.666227 -0.026,0.182887 -0.057,0.354887 -0.091,0.515999 -0.031,0.161115 -0.061,0.322228 -0.091,0.483341 -0.026,0.161114 -0.039,0.350532 -0.039,0.568252 0,0.239494 0.015,0.450683 0.046,0.633569 0.035,0.187239 0.094,0.354884 0.1763,0.502936 0.087,0.152403 0.2025,0.291745 0.3462,0.418024 0.1481,0.130631 0.3375,0.259087 0.5683,0.385367 l -0.1502,0.398429 c -0.3658,-0.148052 -0.6793,-0.304811 -0.9406,-0.470277 -0.2613,-0.161115 -0.4768,-0.341824 -0.6466,-0.542126 -0.1655,-0.200304 -0.2874,-0.424557 -0.3658,-0.672758 -0.078,-0.248203 -0.1176,-0.529063 -0.1176,-0.842581 0,-0.25691 0.013,-0.4681 0.039,-0.633569 0.03,-0.169821 0.061,-0.330934 0.091,-0.483341 0.035,-0.156757 0.065,-0.322225 0.091,-0.496404 0.03,-0.178529 0.046,-0.402782 0.046,-0.672758 0,-0.352705 -0.089,-0.618325 -0.2678,-0.79686 -0.1742,-0.182882 -0.4245,-0.274324 -0.7511,-0.274328 -0.061,4e-6 -0.1067,4e-6 -0.1372,0 -0.026,4e-6 -0.05,0.0022 -0.072,0.0065 -0.022,4e-6 -0.048,0.0044 -0.078,0.01306 -0.026,0.0044 -0.072,0.01089 -0.1372,0.01959 l -0.111,-0.346177 c 0.5138,-0.134983 0.9014,-0.337463 1.1626,-0.607442 0.2613,-0.269969 0.3919,-0.568247 0.3919,-0.894834 0,-0.174171 -0.01,-0.324399 -0.02,-0.450683 -0.013,-0.126272 -0.03,-0.239487 -0.052,-0.339645 -0.017,-0.104499 -0.039,-0.200297 -0.065,-0.287392 -0.022,-0.09144 -0.044,-0.187233 -0.065,-0.287392 -0.017,-0.100144 -0.033,-0.213359 -0.046,-0.339645 -0.013,-0.130625 -0.02,-0.285207 -0.02,-0.463746 0,-0.291738 0.048,-0.566066 0.1437,-0.822986 0.1002,-0.261256 0.2417,-0.500749 0.4246,-0.718479 0.1829,-0.222066 0.4049,-0.424547 0.6662,-0.607442 0.2613,-0.182876 0.5552,-0.348344 0.8818,-0.496405 l 0.1698,0.306987 0,0"
         id="path4549"
         inkscape:connector-curvature="0" />
    </g>
    <g
       transform="matrix(0,-2.3167248,5.9265295,0,-105.01759,-2738.3072)"
       style="font-size:13.37678719px;font-style:normal;font-variant:normal;font-weight:normal;font-stretch:normal;line-height:125%;letter-spacing:0px;word-spacing:0px;fill:#000000;fill-opacity:1;stroke:none;display:inline;font-family:Gentium;-inkscape-font-specification:Gentium"
       id="text4471-8">
      <path
         d="m -1571.9907,52.633353 c -0.1698,0.104516 -0.3288,0.224263 -0.4768,0.35924 -0.1437,0.134997 -0.27,0.285224 -0.3788,0.450683 -0.1089,0.161123 -0.1938,0.337477 -0.2548,0.529062 -0.061,0.191603 -0.091,0.400616 -0.091,0.627037 0,0.252565 0.013,0.459399 0.039,0.620505 0.03,0.161121 0.061,0.313526 0.091,0.457215 0.035,0.139348 0.065,0.289576 0.091,0.450683 0.03,0.16112 0.046,0.367955 0.046,0.620505 0,0.182891 -0.028,0.3636 -0.085,0.542125 -0.052,0.174183 -0.1285,0.339651 -0.2286,0.496405 -0.1002,0.152409 -0.2243,0.291751 -0.3724,0.418024 -0.1436,0.126283 -0.3069,0.228612 -0.4898,0.306987 0.2177,0.03919 0.4006,0.108865 0.5486,0.209012 0.1524,0.0958 0.2744,0.217725 0.3658,0.365772 0.091,0.148054 0.1568,0.322231 0.196,0.522531 0.043,0.195952 0.065,0.413673 0.065,0.653163 0,0.261268 -0.015,0.483343 -0.046,0.666227 -0.026,0.182887 -0.057,0.354887 -0.091,0.515999 -0.031,0.161115 -0.061,0.322228 -0.091,0.483341 -0.026,0.161114 -0.039,0.350531 -0.039,0.568252 0,0.239493 0.015,0.450683 0.046,0.633569 0.035,0.187239 0.094,0.354884 0.1763,0.502935 0.087,0.152404 0.2025,0.291746 0.3462,0.418025 0.1481,0.130631 0.3375,0.259087 0.5683,0.385366 l -0.1502,0.39843 c -0.3658,-0.148052 -0.6793,-0.304811 -0.9406,-0.470277 -0.2613,-0.161116 -0.4768,-0.341824 -0.6466,-0.542126 -0.1655,-0.200304 -0.2874,-0.424557 -0.3658,-0.672758 -0.078,-0.248203 -0.1176,-0.529063 -0.1176,-0.842581 0,-0.256911 0.013,-0.4681 0.039,-0.633569 0.03,-0.169821 0.061,-0.330935 0.091,-0.483341 0.035,-0.156757 0.065,-0.322225 0.091,-0.496404 0.03,-0.178529 0.046,-0.402782 0.046,-0.672758 0,-0.352705 -0.089,-0.618325 -0.2678,-0.79686 -0.1742,-0.182882 -0.4245,-0.274325 -0.7511,-0.274328 -0.061,3e-6 -0.1067,3e-6 -0.1372,0 -0.026,3e-6 -0.05,0.0022 -0.072,0.0065 -0.022,4e-6 -0.048,0.0044 -0.078,0.01306 -0.026,0.0044 -0.072,0.01089 -0.1372,0.01959 l -0.111,-0.346176 c 0.5138,-0.134983 0.9014,-0.337464 1.1626,-0.607442 0.2613,-0.269969 0.3919,-0.568247 0.3919,-0.894834 0,-0.174171 -0.01,-0.324399 -0.02,-0.450683 -0.013,-0.126272 -0.03,-0.239487 -0.052,-0.339645 -0.017,-0.104499 -0.039,-0.200297 -0.065,-0.287392 -0.022,-0.09144 -0.044,-0.187233 -0.065,-0.287392 -0.017,-0.100144 -0.033,-0.213359 -0.046,-0.339645 -0.013,-0.130625 -0.02,-0.285207 -0.02,-0.463746 0,-0.291738 0.048,-0.566066 0.1437,-0.822986 0.1002,-0.261256 0.2417,-0.500749 0.4246,-0.718479 0.1829,-0.222066 0.4049,-0.424547 0.6662,-0.607442 0.2613,-0.182876 0.5552,-0.348344 0.8818,-0.496405 l 0.1698,0.306987 0,0"
         id="path4552"
         inkscape:connector-curvature="0" />
    </g>
    <g
       transform="matrix(0,-1.846374,7.4362711,0,-105.01759,-2738.3072)"
       style="font-size:16.78442955px;font-style:normal;font-variant:normal;font-weight:normal;font-stretch:normal;line-height:125%;letter-spacing:0px;word-spacing:0px;fill:#000000;fill-opacity:1;stroke:none;display:inline;font-family:Gentium;-inkscape-font-specification:Gentium"
       id="text4471-5">
      <path
         d="m -1991.5523,26.106182 c -0.2131,0.131141 -0.4125,0.281392 -0.5983,0.450754 -0.1803,0.169386 -0.3387,0.357883 -0.4753,0.565491 -0.1366,0.202167 -0.2432,0.423446 -0.3197,0.663837 -0.076,0.240413 -0.1147,0.502669 -0.1147,0.78677 0,0.316904 0.016,0.576428 0.049,0.778575 0.038,0.202165 0.076,0.393394 0.1147,0.573686 0.044,0.174847 0.082,0.363344 0.1147,0.565491 0.038,0.202165 0.057,0.461689 0.057,0.778575 0,0.229482 -0.035,0.456224 -0.1065,0.680228 -0.066,0.218554 -0.1612,0.426174 -0.2869,0.62286 -0.1256,0.191235 -0.2813,0.366073 -0.4671,0.524513 -0.1803,0.158453 -0.3852,0.286849 -0.6147,0.38519 0.2732,0.04918 0.5027,0.136597 0.6884,0.262257 0.1913,0.120206 0.3443,0.273189 0.459,0.458949 0.1147,0.18577 0.1967,0.404317 0.2459,0.655642 0.055,0.245869 0.082,0.519053 0.082,0.819552 0,0.327824 -0.019,0.606471 -0.057,0.835943 -0.033,0.229477 -0.071,0.445292 -0.1147,0.647446 -0.038,0.202158 -0.076,0.404314 -0.1147,0.606469 -0.033,0.202157 -0.049,0.439827 -0.049,0.713011 0,0.300502 0.019,0.56549 0.057,0.794965 0.044,0.234938 0.1174,0.445289 0.2212,0.631055 0.1093,0.191228 0.2541,0.366066 0.4344,0.524514 0.1858,0.163908 0.4234,0.325087 0.713,0.483536 l -0.1885,0.499926 c -0.4589,-0.185767 -0.8523,-0.382459 -1.1801,-0.590077 -0.3279,-0.202158 -0.5983,-0.428901 -0.8114,-0.680228 -0.2076,-0.251331 -0.3606,-0.53271 -0.4589,-0.844139 -0.098,-0.31143 -0.1476,-0.663837 -0.1476,-1.057223 0,-0.322356 0.016,-0.587344 0.049,-0.794965 0.038,-0.213082 0.076,-0.415238 0.1148,-0.606469 0.044,-0.19669 0.082,-0.40431 0.1147,-0.62286 0.038,-0.224008 0.057,-0.505387 0.057,-0.844138 0,-0.442555 -0.112,-0.775839 -0.3361,-0.999854 -0.2185,-0.22947 -0.5327,-0.344207 -0.9424,-0.344212 -0.076,5e-6 -0.1339,5e-6 -0.1721,0 -0.033,5e-6 -0.063,0.0027 -0.09,0.0082 -0.027,5e-6 -0.06,0.0055 -0.098,0.01639 -0.033,0.0055 -0.09,0.01366 -0.1721,0.02459 l -0.1394,-0.434363 c 0.6447,-0.169368 1.131,-0.423429 1.4588,-0.762183 0.3278,-0.338742 0.4918,-0.713004 0.4918,-1.122787 0,-0.21854 -0.01,-0.407037 -0.025,-0.565491 -0.016,-0.158439 -0.038,-0.300494 -0.066,-0.426167 -0.022,-0.13112 -0.049,-0.251321 -0.082,-0.360603 -0.027,-0.114729 -0.055,-0.23493 -0.082,-0.360603 -0.022,-0.125656 -0.041,-0.267711 -0.057,-0.426167 -0.016,-0.163901 -0.025,-0.357862 -0.025,-0.581882 0,-0.366057 0.06,-0.710268 0.1803,-1.032636 0.1257,-0.32781 0.3033,-0.628312 0.5328,-0.901507 0.2294,-0.278636 0.5081,-0.532697 0.8359,-0.762184 0.3278,-0.229462 0.6966,-0.437082 1.1064,-0.62286 l 0.2131,0.38519 0,0"
         id="path4555"
         inkscape:connector-curvature="0" />
    </g>
    <text
       xml:space="preserve"
       style="font-size:13px;font-style:normal;font-variant:normal;font-weight:normal;font-stretch:normal;line-height:125%;letter-spacing:0px;word-spacing:0px;fill:#000000;fill-opacity:1;stroke:none;font-family:Gentium;-inkscape-font-specification:Gentium"
       x="157.90178"
       y="926.49371"
       id="text4517"
       sodipodi:linespacing="125%"
       transform="scale(1.0000334,0.9999666)"><tspan
         sodipodi:role="line"
         id="tspan4519"
         x="157.90178"
         y="926.49371">$f$</tspan></text>
    <text
       xml:space="preserve"
       style="font-size:13px;font-style:normal;font-variant:normal;font-weight:normal;font-stretch:normal;line-height:125%;letter-spacing:0px;word-spacing:0px;fill:#000000;fill-opacity:1;stroke:none;font-family:Gentium;-inkscape-font-specification:Gentium"
       x="234.97134"
       y="924.68738"
       id="text4521"
       sodipodi:linespacing="125%"
       transform="scale(1.0000334,0.9999666)"><tspan
         sodipodi:role="line"
         id="tspan4523"
         x="234.97134"
         y="924.68738">$f$</tspan></text>
    <text
       xml:space="preserve"
       style="font-size:13px;font-style:normal;font-variant:normal;font-weight:normal;font-stretch:normal;line-height:125%;letter-spacing:0px;word-spacing:0px;fill:#000000;fill-opacity:1;stroke:none;font-family:Gentium;-inkscape-font-specification:Gentium"
       x="134.47513"
       y="966.63403"
       id="text4525"
       sodipodi:linespacing="125%"
       transform="scale(1.0000334,0.9999666)"><tspan
         sodipodi:role="line"
         id="tspan4527"
         x="134.47513"
         y="966.63403">$nf$</tspan></text>
    <text
       xml:space="preserve"
       style="font-size:13px;font-style:normal;font-variant:normal;font-weight:normal;font-stretch:normal;line-height:125%;letter-spacing:0px;word-spacing:0px;fill:#000000;fill-opacity:1;stroke:none;font-family:Gentium;-inkscape-font-specification:Gentium"
       x="164.50716"
       y="741.1532"
       id="text3069"
       sodipodi:linespacing="125%"
       transform="scale(0.99997571,1.0000243)"><tspan
         sodipodi:role="line"
         id="tspan3071"
         x="164.50716"
         y="741.1532">aplanatic sphere</tspan></text>
    <path
       style="fill:none;stroke:#000000;stroke-width:1px;stroke-linecap:butt;stroke-linejoin:miter;stroke-opacity:1"
       d="m 161.25693,739.16252 -23.62234,7.28984"
       id="path3073"
       inkscape:connector-curvature="0"
       sodipodi:nodetypes="cc" />
    <text
       xml:space="preserve"
       style="font-size:13px;font-style:normal;font-variant:normal;font-weight:normal;font-stretch:normal;line-height:125%;letter-spacing:0px;word-spacing:0px;fill:#000000;fill-opacity:1;stroke:none;font-family:Gentium;-inkscape-font-specification:Gentium"
       x="144.72569"
       y="800.47681"
       id="text3015"
       sodipodi:linespacing="125%"
       transform="scale(0.99997571,1.0000243)"><tspan
         sodipodi:role="line"
         id="tspan3017"
         x="144.72569"
         y="800.47681">$\i$</tspan></text>
    <text
       xml:space="preserve"
       style="font-size:13px;font-style:normal;font-variant:normal;font-weight:normal;font-stretch:normal;line-height:125%;letter-spacing:0px;word-spacing:0px;fill:#000000;fill-opacity:1;stroke:none;font-family:Gentium;-inkscape-font-specification:Gentium"
       x="291.1954"
       y="829.26398"
       id="text3019"
       sodipodi:linespacing="125%"
       transform="scale(0.99997571,1.0000243)"><tspan
         sodipodi:role="line"
         id="tspan3021"
         x="291.1954"
         y="829.26398">$\t$</tspan></text>
    <text
       xml:space="preserve"
       style="font-size:13px;font-style:normal;font-variant:normal;font-weight:normal;font-stretch:normal;line-height:125%;letter-spacing:0px;word-spacing:0px;fill:#000000;fill-opacity:1;stroke:none;font-family:Gentium;-inkscape-font-specification:Gentium"
       x="102.12954"
       y="841.38055"
       id="text3023"
       sodipodi:linespacing="125%"
       transform="scale(0.99997571,1.0000243)"><tspan
         sodipodi:role="line"
         id="tspan3025"
         x="102.12954"
         y="841.38055">$\a$</tspan></text>
    <text
       xml:space="preserve"
       style="font-size:13px;font-style:normal;font-variant:normal;font-weight:normal;font-stretch:normal;line-height:125%;letter-spacing:0px;word-spacing:0px;fill:#000000;fill-opacity:1;stroke:none;font-family:Gentium;-inkscape-font-specification:Gentium"
       x="166.19901"
       y="838.29285"
       id="text3027"
       sodipodi:linespacing="125%"
       transform="scale(0.99997571,1.0000243)"><tspan
         sodipodi:role="line"
         id="tspan3029"
         x="166.19901"
         y="838.29285">$\vect m$</tspan></text>
    <path
       style="fill:none;stroke:#000000;stroke-width:1px;stroke-linecap:butt;stroke-linejoin:miter;stroke-opacity:1"
       d="m 114.1766,825.29172 9.82471,1.91046 -9.82471,2.18337"
       id="path4351"
       inkscape:connector-curvature="0"
       sodipodi:nodetypes="ccc" />
    <text
       xml:space="preserve"
       style="font-size:13px;font-style:normal;font-variant:normal;font-weight:normal;font-stretch:normal;line-height:125%;letter-spacing:0px;word-spacing:0px;fill:#000000;fill-opacity:1;stroke:none;font-family:Gentium;-inkscape-font-specification:Gentium"
       x="209.42685"
       y="777.51147"
       id="text4410"
       sodipodi:linespacing="125%"
       transform="scale(0.99997571,1.0000243)"><tspan
         sodipodi:role="line"
         id="tspan4412"
         x="209.42685"
         y="777.51147">$\e$</tspan></text>
    <path
       style="fill:none;stroke:#000000;stroke-width:0.5;stroke-linecap:butt;stroke-linejoin:miter;stroke-opacity:1"
       d="m 190.31815,797.7266 c 9.42689,-2.79719 1.03505,-22.70103 16.92034,-20.46916"
       id="path4414"
       inkscape:connector-curvature="0"
       sodipodi:nodetypes="cc" />
    <text
       xml:space="preserve"
       style="font-size:13px;font-style:normal;font-variant:normal;font-weight:normal;font-stretch:normal;line-height:125%;letter-spacing:0px;word-spacing:0px;fill:#000000;fill-opacity:1;stroke:none;display:inline;font-family:Gentium;-inkscape-font-specification:Gentium"
       x="58.10783"
       y="791.26007"
       id="text3023-2"
       sodipodi:linespacing="125%"
       transform="scale(0.99997571,1.0000243)"><tspan
         sodipodi:role="line"
         id="tspan3025-7"
         x="58.10783"
         y="791.26007">$\p'$</tspan></text>
    <text
       xml:space="preserve"
       style="font-size:13px;font-style:normal;font-variant:normal;font-weight:normal;font-stretch:normal;line-height:125%;letter-spacing:0px;word-spacing:0px;fill:#000000;fill-opacity:1;stroke:none;display:inline;font-family:Gentium;-inkscape-font-specification:Gentium"
       x="137.47675"
       y="873.68347"
       id="text3023-2-2"
       sodipodi:linespacing="125%"
       transform="scale(0.99997571,1.0000243)"><tspan
         sodipodi:role="line"
         id="tspan3025-7-9"
         x="137.47675"
         y="873.68347">$\p''$</tspan></text>
    <path
       style="fill:none;stroke:#000000;stroke-width:0.5;stroke-linecap:butt;stroke-linejoin:miter;stroke-opacity:1;display:inline"
       d="m 138.19256,862.13623 c -12.07109,-12.79373 1.36315,-21.18484 -10.91634,-31.11311"
       id="path4414-6"
       inkscape:connector-curvature="0"
       sodipodi:nodetypes="cc" />
    <path
       style="fill:none;stroke:#000000;stroke-width:0.5;stroke-linecap:butt;stroke-linejoin:miter;stroke-opacity:1;display:inline"
       d="M 84.702449,824.74588 C 72.512892,820.4838 87.048265,800.11274 72.148646,792.81398"
       id="path4414-5"
       inkscape:connector-curvature="0"
       sodipodi:nodetypes="cc" />
    <text
       xml:space="preserve"
       style="font-size:13px;font-style:normal;font-variant:normal;font-weight:normal;font-stretch:normal;line-height:125%;letter-spacing:0px;word-spacing:0px;fill:#000000;fill-opacity:1;stroke:none;display:inline;font-family:Gentium;-inkscape-font-specification:Gentium"
       x="52.98214"
       y="888.91217"
       id="text3023-2-2-1"
       sodipodi:linespacing="125%"
       transform="scale(0.99997571,1.0000243)"><tspan
         sodipodi:role="line"
         id="tspan3025-7-9-4"
         x="52.98214"
         y="888.91217">$\vect{g}$</tspan></text>
    <text
       xml:space="preserve"
       style="font-size:13px;font-style:normal;font-variant:normal;font-weight:normal;font-stretch:normal;line-height:125%;letter-spacing:0px;word-spacing:0px;fill:#000000;fill-opacity:1;stroke:none;display:inline;font-family:Gentium;-inkscape-font-specification:Gentium"
       x="221.82959"
       y="885.9101"
       id="text3023-2-2-5"
       sodipodi:linespacing="125%"
       transform="scale(0.99997571,1.0000243)"><tspan
         sodipodi:role="line"
         id="tspan3025-7-9-7"
         x="221.82959"
         y="885.9101">$\c$</tspan></text>
    <path
       style="fill:none;stroke:#000000;stroke-width:0.5;stroke-linecap:butt;stroke-linejoin:miter;stroke-opacity:1;display:inline"
       d="m 219.5194,883.15123 c -8.25037,0.0336 -4.91376,-14.3618 -13.91835,-24.29006"
       id="path4414-6-0"
       inkscape:connector-curvature="0"
       sodipodi:nodetypes="cc" />
    <path
       style="fill:none;stroke:#000000;stroke-width:0.5;stroke-linecap:butt;stroke-linejoin:miter;stroke-opacity:1;display:inline"
       d="m 67.509186,884.51583 c 18.494699,-0.78515 0.544432,-19.27439 17.193266,-25.65466"
       id="path4414-6-4"
       inkscape:connector-curvature="0"
       sodipodi:nodetypes="cc" />
    <path
       style="fill:none;stroke:#000000;stroke-width:0.99277407;stroke-linecap:butt;stroke-linejoin:miter;stroke-miterlimit:4;stroke-opacity:1;stroke-dasharray:0.99277396, 0.99277396;stroke-dashoffset:0;display:inline"
       d="m 203.67293,799.20041 -13.94527,0"
       id="path3163-41"
       inkscape:connector-curvature="0"
       sodipodi:nodetypes="cc" />
    <text
       xml:space="preserve"
       style="font-size:13px;font-style:normal;font-variant:normal;font-weight:normal;font-stretch:normal;line-height:125%;letter-spacing:0px;word-spacing:0px;fill:#000000;fill-opacity:1;stroke:none;display:inline;font-family:Gentium;-inkscape-font-specification:Gentium"
       x="226.62117"
       y="837.55969"
       id="text4410-4"
       sodipodi:linespacing="125%"
       transform="scale(0.99997571,1.0000243)"><tspan
         sodipodi:role="line"
         id="tspan4412-4"
         x="226.62117"
         y="837.55969">$\e'$</tspan></text>
    <path
       style="fill:none;stroke:#000000;stroke-width:0.5;stroke-linecap:butt;stroke-linejoin:miter;stroke-opacity:1;display:inline"
       d="m 205.41064,802.75522 c 10.70409,4.37347 1.1753,35.4935 19.21278,32.00394"
       id="path4414-1"
       inkscape:connector-curvature="0"
       sodipodi:nodetypes="cc" />
    <path
       style="fill:none;stroke:#000000;stroke-width:1.65499997;stroke-linecap:butt;stroke-linejoin:miter;stroke-miterlimit:4;stroke-opacity:1;stroke-dasharray:none;stroke-dashoffset:0;marker-start:url(#Arrow1Mstart);display:inline"
       d="m 49.386602,856.47102 18.725357,0"
       id="path2987-1"
       inkscape:connector-curvature="0"
       sodipodi:nodetypes="cc" />
    <text
       xml:space="preserve"
       style="font-size:13px;font-style:normal;font-variant:normal;font-weight:normal;font-stretch:normal;line-height:125%;letter-spacing:0px;word-spacing:0px;fill:#000000;fill-opacity:1;stroke:none;display:inline;font-family:Gentium;-inkscape-font-specification:Gentium"
       x="33.826126"
       y="859.29071"
       id="text3023-2-3"
       sodipodi:linespacing="125%"
       transform="scale(0.99997571,1.0000243)"><tspan
         sodipodi:role="line"
         id="tspan3025-7-5"
         x="33.826126"
         y="859.29071">$\hz$</tspan></text>
    <path
       style="fill:none;stroke:#000000;stroke-width:1.65499997;stroke-linecap:butt;stroke-linejoin:miter;stroke-miterlimit:4;stroke-opacity:1;stroke-dasharray:none;stroke-dashoffset:0;marker-start:url(#Arrow1Mstart);display:inline"
       d="m 183.97421,883.43124 18.72535,0"
       id="path2987-1-9"
       inkscape:connector-curvature="0"
       sodipodi:nodetypes="cc" />
    <text
       xml:space="preserve"
       style="font-size:13px;font-style:normal;font-variant:normal;font-weight:normal;font-stretch:normal;line-height:125%;letter-spacing:0px;word-spacing:0px;fill:#000000;fill-opacity:1;stroke:none;display:inline;font-family:Gentium;-inkscape-font-specification:Gentium"
       x="166.91696"
       y="886.75031"
       id="text3023-2-3-5"
       sodipodi:linespacing="125%"
       transform="scale(0.99997571,1.0000243)"><tspan
         sodipodi:role="line"
         id="tspan3025-7-5-4"
         x="166.91696"
         y="886.75031">$\n$</tspan></text>
  </g>
  <g
     inkscape:groupmode="layer"
     id="layer2"
     inkscape:label="sketch"
     style="display:none"
     transform="translate(-26.883886,143.86474)">
    <path
       sodipodi:type="arc"
       style="fill:none;stroke:#000000;stroke-width:0.16167665;stroke-miterlimit:4;stroke-opacity:1;stroke-dasharray:none;stroke-dashoffset:0"
       id="path2990"
       sodipodi:cx="94.701797"
       sodipodi:cy="65.038414"
       sodipodi:rx="11.364216"
       sodipodi:ry="11.364216"
       d="m 106.06601,65.038414 c 0,6.276283 -5.08793,11.364216 -11.364213,11.364216 -6.276283,0 -11.364215,-5.087933 -11.364215,-11.364216 0,-6.276283 5.087932,-11.364216 11.364215,-11.364216 6.276283,0 11.364213,5.087933 11.364213,11.364216 z"
       transform="matrix(1.8555556,0,0,1.8555556,-92.560165,-44.23134)" />
  </g>
</svg>
